# xmcd
#
# Track frame offsets:
#	150
#	17877
#	35057
#	53194
#	69419
#	83937
#	99894
#	118329
#	133139
#	148139
#	165291
#	183378
#	199628
#	218163
#	239135
#	254862
#
# Disc length: 3609 seconds
#
# Revision: 1
# Processed by: cddbd v1.5.2PL0 Copyright (c) Steve Scherf et al.
# Submitted via: audiograbber 1.83.01
#
DISCID=f50e1710
DTITLE=Various Artist - THM PL39
DYEAR=2003
DGENRE=karaoke
TTITLE0=Sara Evans - I Keep Looking
TTITLE1=Sara Evans - Saints and Angels
TTITLE2=Sara Evans - I Could Not Ask For More
TTITLE3=Sara Evans - No Place That Far
TTITLE4=Terri Clark - Gettin' There
TTITLE5=Terri Clark - I Just Wanna Be Mad
TTITLE6=Terri Clark - No Fear
TTITLE7=Terri Clark - A Little Gasoline
TTITLE8=Lee Ann Womack - Does My Ring Burn Your Finger
TTITLE9=Lee Ann Womack - Something Worth Leaving Behind
TTITLE10=Lee Ann Womack - Ashes By Now
TTITLE11=Lee Ann Womack - Why They Call It Falling
TTITLE12=Martina McBride - Blessed
TTITLE13=Martina McBride - Where Would You Be
TTITLE14=Martina McBride - When God Fearin' Women Get The Blues
TTITLE15=Martina McBride - It's My Time
EXTD=
EXTT0=
EXTT1=
EXTT2=
EXTT3=
EXTT4=
EXTT5=
EXTT6=
EXTT7=
EXTT8=
EXTT9=
EXTT10=
EXTT11=
EXTT12=
EXTT13=
EXTT14=
EXTT15=
PLAYORDER=
